<svg width="512" height="512" viewBox="0 0 512 512" fill="none" xmlns="http://www.w3.org/2000/svg">
  <rect width="512" height="512" fill="white"/>
  <g transform="translate(76, 135) scale(0.7)">
    <!-- Head outline -->
    <path d="M180 50 C220 50, 250 80, 250 120 L250 200 C250 240, 220 270, 180 270 C140 270, 110 240, 110 200 L110 120 C110 80, 140 50, 180 50 Z" 
          stroke="url(#gradient)" stroke-width="8" fill="none"/>
    
    <!-- Left sound wave -->
    <path d="M60 120 Q40 120, 40 140 Q40 160, 60 160" 
          stroke="url(#gradient)" stroke-width="6" fill="none"/>
    <path d="M20 100 Q-10 100, -10 140 Q-10 180, 20 180" 
          stroke="url(#gradient)" stroke-width="6" fill="none"/>
    <path d="M80 140 Q70 140, 70 150 Q70 160, 80 160" 
          stroke="url(#gradient)" stroke-width="6" fill="none"/>
    
    <!-- Right sound wave -->
    <path d="M300 120 Q320 120, 320 140 Q320 160, 300 160" 
          stroke="url(#gradient)" stroke-width="6" fill="none"/>
    <path d="M340 100 Q370 100, 370 140 Q370 180, 340 180" 
          stroke="url(#gradient)" stroke-width="6" fill="none"/>
    <path d="M280 140 Q290 140, 290 150 Q290 160, 280 160" 
          stroke="url(#gradient)" stroke-width="6" fill="none"/>
  </g>
  
  <defs>
    <linearGradient id="gradient" x1="0%" y1="0%" x2="100%" y2="0%">
      <stop offset="0%" style="stop-color:#E91E63;stop-opacity:1" />
      <stop offset="50%" style="stop-color:#9C27B0;stop-opacity:1" />
      <stop offset="100%" style="stop-color:#2196F3;stop-opacity:1" />
    </linearGradient>
  </defs>
</svg>